<svg xmlns="http://www.w3.org/2000/svg" version="1.1" xmlns:xlink="http://www.w3.org/1999/xlink" xmlns:svgjs="http://svgjs.dev/svgjs" width="2000" height="772" viewBox="0 0 2000 772"><g transform="matrix(1,0,0,1,-1.2121212121213603,0.9311323479405473)"><svg viewBox="0 0 396 153" data-background-color="#ffffff" preserveAspectRatio="xMidYMid meet" height="772" width="2000" xmlns="http://www.w3.org/2000/svg" xmlns:xlink="http://www.w3.org/1999/xlink"><g id="tight-bounds" transform="matrix(1,0,0,1,0.24000000000003752,-0.18453788760997725)"><svg viewBox="0 0 395.5199999999999 153.36907577521995" height="153.36907577521995" width="395.5199999999999"><g><svg viewBox="0 0 757.1013372343122 293.5779034178034" height="153.36907577521995" width="395.5199999999999"><g><rect width="13.303564832877996" height="148.25825742427057" x="313.4516864514918" y="72.65982299676641" fill="#0080ff" opacity="1" stroke-width="0" stroke="transparent" fill-opacity="1" class="rect-qz-0" data-fill-palette-color="secondary" rx="1%" id="qz-0" data-palette-color="#0080ff"></rect></g><g transform="matrix(1,0,0,1,361.58133723431223,73.02862463215016)"><svg viewBox="0 0 395.52 147.52065415350307" height="147.52065415350307" width="395.52"><g id="textblocktransform"><svg viewBox="0 0 395.52 147.52065415350307" height="147.52065415350307" width="395.52" id="textblock"><g><svg viewBox="0 0 395.52 147.52065415350307" height="147.52065415350307" width="395.52"><g transform="matrix(1,0,0,1,0,0)"><svg width="395.52" viewBox="3.08 -37.55 131.35999999999999 49" height="147.52065415350307" data-palette-color="#0080ff"><path d="M9.42-37.55L9.42-31.81 3.08-31.81 3.08-37.55 9.42-37.55ZM9.42-26.39L9.42 0 3.08 0 3.08-26.39 9.42-26.39ZM51.14-8.91L51.14-7.69Q51.14-6.52 50.74-5.18 50.34-3.83 49.42-2.69 48.51-1.54 47.04-0.77 45.58 0 43.45 0L43.45 0 19.36 0Q18.67 0 18.09-0.24 17.5-0.49 17.08-0.92 16.65-1.34 16.4-1.93 16.16-2.51 16.16-3.2L16.16-3.2 16.16-31.81Q16.16-32.47 16.4-33.06 16.65-33.64 17.08-34.08 17.5-34.52 18.09-34.77 18.67-35.01 19.36-35.01L19.36-35.01 40.6-35.01Q41.77-35.01 43.11-34.59 44.46-34.18 45.62-33.26 46.77-32.35 47.54-30.88 48.31-29.42 48.31-27.29L48.31-27.29 48.31-26.1Q48.31-24.41 47.75-22.47 47.19-20.53 45.94-18.8L45.94-18.8Q47.02-18.14 47.96-17.21 48.9-16.28 49.61-15.06 50.31-13.84 50.73-12.3 51.14-10.77 51.14-8.91L51.14-8.91ZM44.8-7.74L44.8-8.91Q44.8-10.16 44.41-11.15 44.02-12.13 43.31-12.84 42.6-13.55 41.6-13.93 40.6-14.31 39.35-14.31L39.35-14.31 25.05-14.31 25.05-20.7 36.5-20.7Q37.74-20.7 38.74-21.08 39.74-21.46 40.45-22.17 41.16-22.88 41.54-23.86 41.92-24.85 41.92-26.1L41.92-26.1 41.92-27.29Q41.92-28.66 40.6-28.66L40.6-28.66 22.51-28.66 22.51-6.35 43.45-6.35Q43.63-6.35 43.87-6.37 44.11-6.4 44.31-6.52 44.5-6.64 44.65-6.93 44.8-7.23 44.8-7.74L44.8-7.74ZM67.55-6.35L67.55 0 64.72 0Q63.35 0 61.8-0.46 60.25-0.93 58.91-1.99 57.56-3.05 56.68-4.75 55.81-6.45 55.81-8.91L55.81-8.91 55.81-37.55 62.15-37.55 62.15-8.91Q62.15-7.74 62.89-7.04 63.62-6.35 64.72-6.35L64.72-6.35 67.55-6.35ZM100.33-17.5L100.33-8.91Q100.33-7.28 99.92-5.97 99.5-4.66 98.82-3.67 98.14-2.69 97.23-1.99 96.33-1.29 95.34-0.85 94.35-0.42 93.34-0.21 92.33 0 91.42 0L91.42 0 79.97 0Q78.65 0 77.09-0.46 75.53-0.93 74.2-1.99 72.87-3.05 71.98-4.75 71.09-6.45 71.09-8.91L71.09-8.91 71.09-17.5Q71.09-19.95 71.98-21.64 72.87-23.34 74.2-24.4 75.53-25.46 77.09-25.93 78.65-26.39 79.97-26.39L79.97-26.39 91.42-26.39Q93.86-26.39 95.57-25.51 97.28-24.63 98.33-23.3 99.38-21.97 99.86-20.41 100.33-18.85 100.33-17.5L100.33-17.5ZM93.99-8.91L93.99-17.46Q93.99-18.77 93.33-19.41 92.67-20.04 91.42-20.04L91.42-20.04 80.02-20.04Q78.75-20.04 78.09-19.4 77.43-18.75 77.43-17.5L77.43-17.5 77.43-8.91Q77.43-7.67 78.09-7.01 78.75-6.35 80.02-6.35L80.02-6.35 91.42-6.35Q92.72-6.35 93.35-7.01 93.99-7.67 93.99-8.91L93.99-8.91ZM134.44-17.5L134.44 2.54Q134.44 4.17 134.02 5.48 133.61 6.79 132.92 7.78 132.24 8.76 131.34 9.46 130.43 10.16 129.45 10.6 128.46 11.04 127.44 11.24 126.43 11.45 125.53 11.45L125.53 11.45 114.08 11.45 114.08 5.1 125.53 5.1Q126.82 5.1 127.46 4.44 128.09 3.78 128.09 2.54L128.09 2.54 128.09-17.5Q128.09-18.75 127.46-19.4 126.82-20.04 125.53-20.04L125.53-20.04 114.08-20.04Q112.91-20.04 112.22-19.32 111.54-18.6 111.54-17.5L111.54-17.5 111.54-8.91Q111.54-7.67 112.2-7.01 112.86-6.35 114.13-6.35L114.13-6.35 125.53-6.35 125.53 0 114.08 0Q113.17 0 112.17-0.21 111.17-0.42 110.18-0.85 109.19-1.29 108.29-1.99 107.39-2.69 106.7-3.67 106.02-4.66 105.61-5.97 105.19-7.28 105.19-8.91L105.19-8.91 105.19-17.5Q105.19-18.41 105.4-19.41 105.61-20.41 106.04-21.4 106.48-22.39 107.18-23.29 107.88-24.19 108.86-24.88 109.85-25.56 111.15-25.98 112.44-26.39 114.08-26.39L114.08-26.39 125.53-26.39Q126.43-26.39 127.44-26.18 128.46-25.98 129.45-25.54 130.43-25.1 131.34-24.4 132.24-23.71 132.92-22.72 133.61-21.73 134.02-20.43 134.44-19.14 134.44-17.5L134.44-17.5Z" opacity="1" transform="matrix(1,0,0,1,0,0)" fill="#0080ff" class="wordmark-text-0" data-fill-palette-color="primary" id="text-0"></path></svg></g></svg></g></svg></g></svg></g><g><svg viewBox="0 0 278.6256005015494 293.5779034178034" height="293.5779034178034" width="278.6256005015494"><g><svg xmlns="http://www.w3.org/2000/svg" xmlns:xlink="http://www.w3.org/1999/xlink" version="1.1" x="8" y="0" viewBox="8 3.0000000000000018 84 93.89999999999999" enable-background="new 0 0 100 100" xml:space="preserve" height="293.5779034178034" width="262.6256005015494" class="icon-icon-0" data-fill-palette-color="accent" id="icon-0"><path d="M92 30.9c0-4.7-3.8-8.6-8.6-8.6-2.7 0-5.1 1.3-6.7 3.3L57.9 14.8c0.4-1 0.6-2 0.6-3.2 0-4.7-3.8-8.6-8.6-8.6s-8.6 3.8-8.6 8.6c0 1.1 0.2 2.2 0.6 3.1L23.3 25.7c-1.6-2-4-3.3-6.7-3.3-4.7 0-8.6 3.8-8.6 8.6 0 4.2 3.1 7.7 7.1 8.4l0 21.3C11.1 61.3 8 64.8 8 69.1c0 4.7 3.8 8.6 8.6 8.6 2.7 0 5.1-1.2 6.6-3.2L42 85.3c-0.4 0.9-0.6 2-0.6 3 0 4.7 3.8 8.6 8.6 8.6s8.6-3.8 8.6-8.6c0-1.1-0.2-2.1-0.6-3l18.8-10.9c1.6 1.9 4 3.2 6.6 3.2 4.7 0 8.6-3.8 8.6-8.6 0-4.3-3.2-7.9-7.3-8.5l0-21.2C88.8 38.8 92 35.2 92 30.9zM83.4 24.8c3.4 0 6.1 2.7 6.1 6.1S86.8 37 83.4 37c-3.4 0-6.1-2.7-6.1-6.1S80 24.8 83.4 24.8zM50 5.5c3.4 0 6.1 2.7 6.1 6.1 0 1-0.3 2-0.7 2.9 0 0-0.1 0.1-0.1 0.1 0 0 0 0.1 0 0.1-1.1 1.8-3 3-5.2 3-3.4 0-6.1-2.7-6.1-6.1S46.6 5.5 50 5.5zM10.5 30.9c0-3.4 2.7-6.1 6.1-6.1 3.4 0 6.1 2.7 6.1 6.1S20 37 16.6 37C13.2 37 10.5 34.3 10.5 30.9zM16.6 75.2c-3.4 0-6.1-2.7-6.1-6.1 0-3.4 2.7-6.1 6.1-6.1 3.4 0 6.1 2.7 6.1 6.1C22.7 72.4 20 75.2 16.6 75.2zM50 94.5c-3.4 0-6.1-2.7-6.1-6.1 0-3.4 2.7-6.1 6.1-6.1 3.4 0 6.1 2.7 6.1 6.1C56.1 91.7 53.4 94.5 50 94.5zM56.8 83.2c-1.6-2-4-3.4-6.8-3.4-2.8 0-5.2 1.3-6.8 3.4L24.5 72.4c0.4-1 0.7-2.1 0.7-3.3 0-4.4-3.3-8-7.5-8.5l0-21.2c4.2-0.5 7.5-4.1 7.5-8.5 0-1.1-0.2-2.2-0.6-3.2l18.7-10.9c1.6 2 4 3.3 6.7 3.3 2.7 0 5.1-1.3 6.7-3.3l18.8 10.9c-0.4 1-0.6 2-0.6 3.2 0 4.3 3.2 7.9 7.3 8.5l0 21.2c-4.1 0.6-7.3 4.2-7.3 8.5 0 1.2 0.2 2.3 0.7 3.3L56.8 83.2zM89.5 69.1c0 3.4-2.7 6.1-6.1 6.1-3.4 0-6.1-2.7-6.1-6.1 0-3.4 2.7-6.1 6.1-6.1C86.8 63 89.5 65.7 89.5 69.1zM69.5 64.8c0.5 0.4 0.6 1.2 0.2 1.7-0.2 0.3-0.6 0.4-0.9 0.4-0.3 0-0.5-0.1-0.8-0.3-5.1-4.2-10.5-6.9-11.6-7.4-0.6-0.3-0.9-0.8-0.9-1.4v-8c0-0.4 0.2-0.8 0.5-1 0.7-0.5 1.1-1.3 1.1-2.1v-8.3c0-3.5-2.8-6.3-6.3-6.3h-1.8c-3.5 0-6.3 2.8-6.3 6.3v8.3c0 0.8 0.4 1.6 1.1 2.1 0.3 0.2 0.5 0.6 0.5 1v8c0 0.6-0.3 1.2-0.9 1.4-1 0.5-6.5 3.3-11.6 7.4-0.5 0.4-1.3 0.4-1.7-0.2-0.4-0.5-0.4-1.3 0.2-1.7 4.7-3.9 9.8-6.6 11.6-7.5v-6.9c-1.1-0.9-1.7-2.3-1.7-3.7v-8.3c0-4.8 3.9-8.7 8.7-8.7h1.8c4.8 0 8.7 3.9 8.7 8.7v8.3c0 1.4-0.6 2.8-1.7 3.7v6.9C59.7 58.2 64.8 61 69.5 64.8z" fill="#0080ff" data-fill-palette-color="accent"></path></svg></g></svg></g></svg></g><defs></defs></svg><rect width="395.5199999999999" height="153.36907577521995" fill="none" stroke="none" visibility="hidden"></rect></g></svg></g></svg>